<svg xmlns="http://www.w3.org/2000/svg" viewBox="0 0 24 24" id="hierachy-down"><g><path fill="#eee1f9" d="M19,15.25c-.12,0-.23.02-.34.03a6.729,6.729,0,0,0-6.14-4.01H12.5l-3.43.02H9.05A3.313,3.313,0,0,1,5.98,9.18a4.024,4.024,0,1,0-1.73-.07v6.22a3.75,3.75,0,1,0,1.5,0V11.45a4.789,4.789,0,0,0,3.3,1.34h.02l3.43-.02h.02a5.241,5.241,0,0,1,4.7,2.95A3.72,3.72,0,1,0,19,15.25ZM7.25,19A2.25,2.25,0,1,1,5,16.75,2.253,2.253,0,0,1,7.25,19Z"></path><path fill="#a86ce4" d="M19,15.25c-.12,0-.23.02-.34.03a6.729,6.729,0,0,0-6.14-4.01H12.5l-3.43.02H9.05A3.313,3.313,0,0,1,5.98,9.18a4.024,4.024,0,1,0-1.73-.07v6.22a3.75,3.75,0,1,0,1.5,0V11.45a4.789,4.789,0,0,0,3.3,1.34h.02l3.43-.02h.02a5.241,5.241,0,0,1,4.7,2.95A3.72,3.72,0,1,0,19,15.25ZM7.25,19A2.25,2.25,0,1,1,5,16.75,2.253,2.253,0,0,1,7.25,19Zm-2-11.25a2.5,2.5,0,1,1,2.5-2.5A2.5,2.5,0,0,1,5.25,7.75ZM19,21.25A2.25,2.25,0,1,1,21.25,19,2.253,2.253,0,0,1,19,21.25Z"></path></g></svg>