<svg xmlns="http://www.w3.org/2000/svg" enable-background="new 0 0 47.5 47.5" viewBox="0 0 47.5 47.5" id="verify"><defs><clipPath id="a"><path d="M0 38h38V0H0v38Z"></path></clipPath></defs><g clip-path="url(#a)" transform="matrix(1.25 0 0 -1.25 0 47.5)"><path fill="#77b255" d="M0 0a4 4 0 0 0-4-4h-28a4 4 0 0 0-4 4v28a4 4 0 0 0 4 4h28a4 4 0 0 0 4-4V0Z" transform="translate(37 5)"></path><path fill="#fff" d="M0 0c-.64 0-1.28.244-1.768.732l-6.5 6.5a2.501 2.501 0 0 0 3.536 3.536L0 6.035l13.732 13.733a2.501 2.501 0 0 0 3.536-3.536L1.768.732A2.493 2.493 0 0 0 0 0" transform="translate(14.5 8)"></path></g></svg>