<svg xmlns="http://www.w3.org/2000/svg" width="1150" height="1150" viewBox="0 0 1150 1150" id="web-designing"><defs><linearGradient id="a" x1="56.105%" x2="46.444%" y1="-3.541%" y2="68.393%"><stop offset="0%" stop-color="#FFF"></stop><stop offset="90.3%" stop-color="#FFF" stop-opacity="0"></stop></linearGradient><linearGradient id="b" x1="57.732%" x2="48.079%" y1=".45%" y2="72.352%"><stop offset="0%" stop-color="#FFF"></stop><stop offset="90.3%" stop-color="#FFF" stop-opacity="0"></stop></linearGradient><linearGradient id="c" x1="55.868%" x2="45.059%" y1="19.768%" y2="75.456%"><stop offset="0%" stop-color="#FFF"></stop><stop offset="100%" stop-color="#FFF" stop-opacity="0"></stop></linearGradient><linearGradient id="d" x1="58.963%" x2="42.455%" y1="27.312%" y2="69.098%"><stop offset="0%" stop-color="#FFF"></stop><stop offset="100%" stop-color="#FFF" stop-opacity="0"></stop></linearGradient><linearGradient id="e" x1="34.306%" x2="64.782%" y1="10.113%" y2="87.61%"><stop offset="0%" stop-color="#FFF"></stop><stop offset="100%" stop-color="#FFF" stop-opacity="0"></stop></linearGradient><linearGradient id="f" x1="59.171%" x2="50.227%" y1="28.446%" y2="49.467%"><stop offset="0%" stop-color="#FFF"></stop><stop offset="100%" stop-color="#FFF" stop-opacity="0"></stop></linearGradient><linearGradient id="g" x1="59.174%" x2="42.277%" y1="34.004%" y2="63.466%"><stop offset="0%" stop-color="#FFF"></stop><stop offset="100%" stop-color="#FFF" stop-opacity="0"></stop></linearGradient><linearGradient id="h" x1="59.349%" x2="42.131%" y1="32.302%" y2="64.896%"><stop offset="0%" stop-color="#FFF"></stop><stop offset="100%" stop-color="#FFF" stop-opacity="0"></stop></linearGradient><linearGradient id="i" x1="24.808%" x2="62.779%" y1="20.859%" y2="64.79%"><stop offset="0%" stop-color="#FFF"></stop><stop offset="100%" stop-color="#FFF" stop-opacity="0"></stop></linearGradient></defs><g fill="none" fill-rule="evenodd"><rect width="1150" height="1150" fill="#003ECB"></rect><g transform="translate(228 130)"><path fill="url(#a)" fill-rule="nonzero" d="M394.8,300.6 C386.3,295.7 380.2,295.6 376.5,300.2 C372.7,304.8 370.9,312.6 370.9,323.5 L370.9,382.5 C370.9,393.7 369.9,403 367.8,410.4 C365.7,418.1 362.2,423.5 357.4,426.7 C352.7,430 346.3,430.8 338.2,429.3 C330.3,427.9 320.4,423.7 308.6,416.9 L303,413.6 L303,367.1 L310.1,371.2 C318.6,376.1 324.2,376.7 327,373.2 C330,369.7 331.5,362.5 331.5,351.6 L331.5,299.6 C331.5,286 332.8,275.3 335.5,267.5 C338.1,259.6 343.4,254.6 351.3,252.4 C343.4,241.1 338.1,229.9 335.5,219 C332.9,208.1 331.6,195.9 331.6,182.3 L331.6,130.3 C331.6,119.4 330.1,110.4 327.1,103.5 C324.3,96.7 318.6,90.8 310.2,85.9 L303.1,81.8 L303.1,35.3 L308.7,38.6 C320.5,45.4 330.4,52.7 338.3,60.4 C346.4,68.2 352.8,76.4 357.5,85.2 C362.4,94 365.9,103.4 367.9,113.5 C370,123.3 371,133.8 371,145 L371,204 C371,214.9 372.9,224.9 376.6,233.8 C380.4,242.7 386.5,249.7 394.9,254.5 L394.8,300.6 Z" opacity=".4"></path><path fill="url(#b)" fill-rule="nonzero" d="M180.6,129.7 C189.1,134.6 195.2,134.7 198.9,130.1 C202.7,125.5 204.5,117.7 204.5,106.8 L204.5,47.8 C204.5,36.6 205.5,27.3 207.6,19.9 C209.7,12.2 213.1,6.8 217.8,3.5 C222.7,0.3 229.1,-0.5 237,0.9 C245.1,2.4 255.1,6.6 266.9,13.5 L272.5,16.8 L272.5,63.3 L265.4,59.2 C256.9,54.3 251.2,53.6 248.2,57.1 C245.4,60.7 244,67.9 244,78.9 L244,130.9 C244,144.4 242.7,155.2 240,163 C237.4,170.9 232.1,175.9 224.2,178.1 C232.1,189.4 237.4,200.6 240,211.5 C242.6,222.4 243.9,234.6 243.9,248.2 L243.9,300.2 C243.9,311.1 245.3,320 248.1,326.9 C251.1,333.8 256.8,339.8 265.3,344.6 L272.4,348.7 L272.4,395.2 L266.8,391.9 C255,385.1 245,377.7 236.9,370 C229,362.3 222.6,354.1 217.7,345.2 C213,336.5 209.6,327.1 207.6,317.1 C205.5,307.3 204.5,296.8 204.5,285.6 L204.5,226.6 C204.5,215.7 202.6,205.7 198.9,196.8 C195.1,187.9 189,180.9 180.6,176.1 L180.6,129.7 L180.6,129.7 Z" opacity=".4"></path><polygon fill="url(#c)" fill-rule="nonzero" points="423.7 13.1 634.8 135 634.7 641.1 423.6 519.3" opacity=".15"></polygon><polygon fill="#F2C94C" points="384 79.4 552 176.3 552 222.8 384 125.9"></polygon><polygon fill="url(#d)" fill-rule="nonzero" points="451.2 294.7 610.4 386.6 610.4 527.3 451.2 435.4" opacity=".2"></polygon><polygon fill="#FFF" fill-rule="nonzero" points="449.6 186.8 611.2 280.1 611.2 296 449.6 202.7" opacity=".15"></polygon><polygon fill="#FFF" fill-rule="nonzero" points="449.6 218.8 589.3 299.4 589.3 315.3 449.6 234.7" opacity=".15"></polygon><polygon fill="#FFF" fill-rule="nonzero" points="449.6 250.4 568.2 318.8 568.2 334.7 449.6 266.3" opacity=".15"></polygon><polygon fill="url(#e)" fill-rule="nonzero" points="423.7 13.1 634.8 135 634.8 202.8 423.6 81" opacity=".2"></polygon><path fill="#FFF" fill-rule="nonzero" d="M476.4,77.9 C476.4,88.2 470.4,93 463,88.7 C455.6,84.4 449.6,72.7 449.6,62.4 C449.6,52.1 455.6,47.3 463,51.6 C470.4,55.9 476.4,67.7 476.4,77.9 Z" opacity=".2"></path><polygon fill="url(#f)" fill-rule="nonzero" points="43.3 168.1 693.1 543.1 693 1049.5 43.2 674.5" opacity=".15"></polygon><polygon fill="#F2994A" points=".2 292.9 168.1 389.8 168.1 436.3 .2 339.5"></polygon><polygon fill="#FFF" fill-rule="nonzero" points="87.1 420.7 459.9 635.9 459.9 651.8 87.1 436.6" opacity=".15"></polygon><polygon fill="#FFF" fill-rule="nonzero" points="87.1 452.7 408.7 638.3 408.7 654.2 87.1 468.6" opacity=".15"></polygon><polygon fill="#FFF" fill-rule="nonzero" points="87.1 484.4 360.8 642.4 360.8 658.3 87.1 500.3" opacity=".15"></polygon><polygon fill="url(#g)" fill-rule="nonzero" points="338.7 686 666.5 875.2 666.5 1015.9 338.7 826.7" opacity=".2"></polygon><polygon fill="#FFF" fill-rule="nonzero" points="363.4 728.1 412.8 756.6 412.8 803.1 363.4 774.6" opacity=".15"></polygon><polygon fill="#FFF" fill-rule="nonzero" points="423.9 765.3 473.3 793.8 473.3 840.3 423.9 811.8" opacity=".15"></polygon><polygon fill="#FFF" fill-rule="nonzero" points="484.7 799.8 534.1 828.3 534.1 874.8 484.7 846.3" opacity=".15"></polygon><polygon fill="#FFF" fill-rule="nonzero" points="545.5 836.5 594.9 865 594.9 911.5 545.5 883" opacity=".15"></polygon><polygon fill="url(#h)" fill-rule="nonzero" points="26.1 500.2 299 657.7 299 798.4 26.1 640.8" opacity=".2"></polygon><polygon fill="#FFF" fill-rule="nonzero" points="53.6 552.1 270.4 677.2 270.4 693.1 53.6 568" opacity=".15"></polygon><polygon fill="#FFF" fill-rule="nonzero" points="53.6 584.1 227.2 684.3 227.2 700.2 53.6 599.9" opacity=".15"></polygon><polygon fill="url(#i)" fill-rule="nonzero" points="43.3 168.1 692.2 542.7 692.2 611.3 43.3 236.8" opacity=".2"></polygon><path fill="#FFF" fill-rule="nonzero" d="M114,243.2 C114,253.5 108,258.3 100.6,254 C93.2,249.7 87.2,238 87.2,227.7 C87.2,217.4 93.2,212.6 100.6,216.9 C108,221.2 114,233 114,243.2 Z" opacity=".2"></path></g></g></svg>